<?xml version="1.0" encoding="iso-8859-1"?>
<!-- Generator: Adobe Illustrator 19.0.0, SVG Export Plug-In . SVG Version: 6.00 Build 0)  -->
<svg version="1.1" id="Layer_1" xmlns="http://www.w3.org/2000/svg" xmlns:xlink="http://www.w3.org/1999/xlink" x="0px" y="0px"
	 viewBox="0 0 512 512" style="enable-background:new 0 0 512 512;" xml:space="preserve">
<path style="fill:#DCEBEF;" d="M145.783,170.832c0-60.747,49.245-109.993,109.993-109.993l0,0
	c60.747,0,109.993,49.245,109.993,109.993H145.783z"/>
<path style="fill:#B3C9CE;" d="M277.191,62.94c-6.928-1.368-14.086-2.1-21.416-2.1l0,0c-60.747,0-109.993,49.245-109.993,109.993
	h42.831C188.614,117.415,226.698,72.907,277.191,62.94z"/>
<g>
	<polyline style="fill:#DCEBEF;" points="353.585,299.32 502.04,299.32 502.04,484.259 9.508,484.259 9.508,299.32 158.898,299.32 	
		"/>
	<polyline style="fill:#DCEBEF;" points="353.585,299.32 387.824,299.32 387.824,215.604 123.725,215.604 123.725,299.32 
		158.898,299.32 	"/>
</g>
<rect x="145.781" y="170.832" style="fill:#B3C9CE;" width="219.983" height="44.775"/>
<rect x="145.781" y="170.832" style="fill:#A0B6BA;" width="42.504" height="44.775"/>
<g>
	<polygon style="fill:#B3C9CE;" points="353.585,325.109 158.898,325.109 158.898,287.47 256.241,258.916 353.585,287.47 	"/>
	<rect x="169.287" y="325.114" style="fill:#B3C9CE;" width="29.852" height="159.15"/>
	<rect x="313.355" y="325.114" style="fill:#B3C9CE;" width="29.852" height="159.15"/>
	<rect x="241.321" y="325.114" style="fill:#B3C9CE;" width="29.852" height="159.15"/>
</g>
<g>
	<rect x="169.287" y="325.114" style="fill:#A0B6BA;" width="29.852" height="34.801"/>
	<rect x="313.355" y="325.114" style="fill:#A0B6BA;" width="29.852" height="34.801"/>
	<rect x="241.321" y="325.114" style="fill:#A0B6BA;" width="29.852" height="34.801"/>
</g>
<g>
	<path style="fill:#515C6D;" d="M79.077,329.466L79.077,329.466c-10.035,0-18.171,8.135-18.171,18.171v27.256h36.342v-27.256
		C97.247,337.602,89.112,329.466,79.077,329.466z"/>
	<path style="fill:#515C6D;" d="M79.077,403.447L79.077,403.447c-10.035,0-18.171,8.135-18.171,18.171v27.256h36.342v-27.256
		C97.247,411.583,89.112,403.447,79.077,403.447z"/>
	<path style="fill:#515C6D;" d="M433.406,329.466L433.406,329.466c-10.035,0-18.171,8.135-18.171,18.171v27.256h36.341v-27.256
		C451.577,337.602,443.442,329.466,433.406,329.466z"/>
	<path style="fill:#515C6D;" d="M433.406,403.447L433.406,403.447c-10.035,0-18.171,8.135-18.171,18.171v27.256h36.341v-27.256
		C451.577,411.583,443.442,403.447,433.406,403.447z"/>
</g>
<path d="M502.266,289.513H397.784v-73.981c0-5.376-4.358-9.734-9.734-9.734h-12.321c0,0,0.017-35.538-0.003-35.785
	c-0.384-62.402-48.753-113.631-109.99-118.581V27.815c0-5.376-4.358-9.734-9.734-9.734c-5.376,0-9.734,4.358-9.734,9.734V51.43
	c-61.482,4.971-109.993,56.589-109.993,119.329v35.037h-12.324c-5.376,0-9.734,4.358-9.734,9.734v73.981H9.734
	c-5.376,0-9.734,4.358-9.734,9.734v184.939c0,5.376,4.358,9.734,9.734,9.734h492.531c5.376,0,9.734-4.358,9.734-9.734V299.247
	C512,293.871,507.642,289.513,502.266,289.513z M256.001,70.502c52,0,94.88,39.791,99.79,90.524h-199.58
	C161.121,110.293,204.002,70.502,256.001,70.502z M155.743,180.495H356.26v25.303h-13.298v-11.201c0-5.376-4.358-9.734-9.734-9.734
	s-9.734,4.358-9.734,9.734v11.201h-11.422v-11.201c0-5.376-4.358-9.734-9.734-9.734s-9.734,4.358-9.734,9.734v11.201h-11.422
	v-11.201c0-5.376-4.358-9.734-9.734-9.734s-9.734,4.358-9.734,9.734v11.201H250.29v-11.201c0-5.376-4.358-9.734-9.734-9.734
	s-9.734,4.358-9.734,9.734v11.201H219.4v-11.201c0-5.376-4.358-9.734-9.734-9.734s-9.734,4.358-9.734,9.734v11.201H188.51v-11.201
	c0-5.376-4.358-9.734-9.734-9.734s-9.734,4.358-9.734,9.734v11.201h-13.298L155.743,180.495L155.743,180.495z M133.685,225.266
	h244.63v64.247h-14.77v-2.116c0-4.321-2.848-8.125-6.994-9.341l-97.343-28.554c-1.789-0.524-3.691-0.524-5.48,0l-97.343,28.554
	c-4.147,1.216-6.994,5.02-6.994,9.341v2.116h-15.705V225.266z M303.841,334.771v139.681h-22.713V334.771H303.841z M168.858,315.302
	v-20.616l87.609-25.699l87.609,25.699v20.616H168.858z M231.807,334.771v139.681h-22.713V334.771H231.807z M19.469,308.981H149.39
	v16.055c0,5.376,4.358,9.734,9.734,9.734h0.649v139.681H19.469V308.981z M179.242,474.452V334.771h10.383v139.681H179.242z
	 M251.276,474.452V334.771h10.383v139.681H251.276z M323.31,474.452V334.771h10.383v139.681H323.31z M492.531,474.452h-139.37
	V334.771h0.649c5.376,0,9.734-4.358,9.734-9.734v-16.055h128.986V474.452z"/>
<path d="M79.302,319.659c-15.387,0-27.905,12.518-27.905,27.905v27.256c0,5.376,4.358,9.734,9.734,9.734h36.342
	c5.376,0,9.734-4.358,9.734-9.734v-27.256C107.207,332.178,94.689,319.659,79.302,319.659z M87.739,365.086H70.866v-17.522
	c0-4.652,3.785-8.436,8.436-8.436c4.652,0,8.436,3.785,8.436,8.436V365.086z"/>
<path d="M79.302,393.64c-15.387,0-27.905,12.518-27.905,27.905v27.256c0,5.376,4.358,9.734,9.734,9.734h36.342
	c5.376,0,9.734-4.358,9.734-9.734v-27.256C107.207,406.159,94.689,393.64,79.302,393.64z M87.739,439.067H70.866v-17.522
	c0-4.652,3.785-8.436,8.436-8.436c4.652,0,8.436,3.785,8.436,8.436V439.067z"/>
<path d="M415.461,384.555h36.342c5.376,0,9.734-4.358,9.734-9.734v-27.256c0-15.387-12.518-27.905-27.905-27.905
	s-27.905,12.518-27.905,27.905v27.256C405.727,380.196,410.085,384.555,415.461,384.555z M425.196,347.564
	c0-4.652,3.785-8.436,8.436-8.436s8.436,3.785,8.436,8.436v17.522h-16.873V347.564z"/>
<path d="M415.461,458.536h36.342c5.376,0,9.734-4.358,9.734-9.734v-27.256c0-15.387-12.518-27.905-27.905-27.905
	s-27.905,12.518-27.905,27.905v27.256C405.727,454.177,410.085,458.536,415.461,458.536z M425.196,421.545
	c0-4.652,3.785-8.436,8.436-8.436s8.436,3.785,8.436,8.436v17.522h-16.873V421.545z"/>
<g>
</g>
<g>
</g>
<g>
</g>
<g>
</g>
<g>
</g>
<g>
</g>
<g>
</g>
<g>
</g>
<g>
</g>
<g>
</g>
<g>
</g>
<g>
</g>
<g>
</g>
<g>
</g>
<g>
</g>
</svg>
